<?xml version="1.0" encoding="iso-8859-1"?>
<!-- Generator: Adobe Illustrator 19.0.0, SVG Export Plug-In . SVG Version: 6.00 Build 0)  -->
<svg version="1.1" id="Capa_1" xmlns="http://www.w3.org/2000/svg" xmlns:xlink="http://www.w3.org/1999/xlink" x="0px" y="0px"
	 viewBox="0 0 512 512" style="enable-background:new 0 0 512 512;" xml:space="preserve">
<g>
	<g>
		<path d="M405.333,213.333v32c0,29.455-23.878,53.333-53.333,53.333s-53.333-23.878-53.333-53.333v-32h-21.333v32
			C277.38,286.551,310.782,319.953,352,320c41.218-0.047,74.62-33.449,74.667-74.667v-32H405.333z"/>
	</g>
</g>
<g>
	<g>
		<path d="M352,85.333c-47.128,0-85.333,38.205-85.333,85.333v42.667c0,5.891,4.776,10.667,10.667,10.667H288
			c22.555,1.409,43.925-10.223,54.987-29.931C354.133,209.344,375.467,224,416,224h10.667c5.891,0,10.667-4.776,10.667-10.667
			v-42.667C437.333,123.538,399.128,85.333,352,85.333z M416,202.667c-61.461,0-63.915-38.4-64-42.667
			c0-5.891-4.776-10.667-10.667-10.667c-5.891,0-10.667,4.776-10.667,10.667c0,1.739-0.491,42.667-42.667,42.667v-32
			c0-35.346,28.654-64,64-64s64,28.654,64,64V202.667z"/>
	</g>
</g>
<g>
	<g>
		<rect x="373.333" y="298.667" width="21.333" height="32"/>
	</g>
</g>
<g>
	<g>
		<rect x="309.333" y="298.667" width="21.333" height="32"/>
	</g>
</g>
<g>
	<g>
		<path d="M416,320h-32c-4.712,0-8.866,3.091-10.219,7.605L352,400.213l-21.781-72.608C328.866,323.091,324.712,320,320,320h-32
			c-52.995,0.059-95.941,43.005-96,96v85.333c0,5.891,4.776,10.667,10.667,10.667h298.667c5.891,0,10.667-4.776,10.667-10.667V416
			C511.941,363.005,468.995,320.059,416,320z M490.667,490.667H213.333V416c0.047-41.218,33.449-74.62,74.667-74.667h24.064
			l29.717,99.061c1.03,3.439,3.72,6.13,7.16,7.16c5.644,1.689,11.588-1.516,13.278-7.16l29.717-99.061H416
			c41.218,0.047,74.62,33.449,74.667,74.667V490.667z"/>
	</g>
</g>
<g>
	<g>
		<rect x="437.333" y="448" width="21.333" height="53.333"/>
	</g>
</g>
<g>
	<g>
		<rect x="245.333" y="448" width="21.333" height="53.333"/>
	</g>
</g>
<g>
	<g>
		<path d="M405.333,330.667v48.341l-60.171,50.133l13.675,16.384l64-53.333c2.428-2.028,3.831-5.029,3.829-8.192v-53.333H405.333z"
			/>
	</g>
</g>
<g>
	<g>
		<path d="M298.667,379.008v-48.341h-21.333V384c-0.001,3.163,1.401,6.164,3.829,8.192l64,53.333l13.675-16.384L298.667,379.008z"/>
	</g>
</g>
<g>
	<g>
		<rect x="341.333" y="437.333" width="21.333" height="64"/>
	</g>
</g>
<g>
	<g>
		<rect x="288" y="234.667" width="128" height="21.333"/>
	</g>
</g>
<g>
	<g>
		<path d="M53.333,490.667c-17.673,0-32-14.327-32-32v-384C21.333,68.776,26.109,64,32,64h32V42.667H32c-17.673,0-32,14.327-32,32
			v384C0.035,488.107,23.893,511.965,53.333,512h117.333v-21.333H53.333z"/>
	</g>
</g>
<g>
	<g>
		<rect x="160" y="32" width="21.333" height="85.333"/>
	</g>
</g>
<g>
	<g>
		<rect x="128" y="64" width="85.333" height="21.333"/>
	</g>
</g>
<g>
	<g>
		<path d="M224,0H117.333c-17.673,0-32,14.327-32,32v85.333c0,17.673,14.327,32,32,32H224c17.673,0,32-14.327,32-32V32
			C256,14.327,241.673,0,224,0z M234.667,117.333c0,5.891-4.776,10.667-10.667,10.667H117.333c-5.891,0-10.667-4.776-10.667-10.667
			V32c0-5.891,4.776-10.667,10.667-10.667H224c5.891,0,10.667,4.776,10.667,10.667V117.333z"/>
	</g>
</g>
<g>
	<g>
		<path d="M309.333,42.667h-32V64h32C315.224,64,320,68.776,320,74.667V96h21.333V74.667
			C341.333,56.994,327.006,42.667,309.333,42.667z"/>
	</g>
</g>
<g>
	<g>
		<rect x="53.333" y="192" width="64" height="21.333"/>
	</g>
</g>
<g>
	<g>
		<rect x="138.667" y="192" width="64" height="21.333"/>
	</g>
</g>
<g>
	<g>
		<rect x="224" y="192" width="21.333" height="21.333"/>
	</g>
</g>
<g>
	<g>
		<rect x="53.333" y="245.333" width="64" height="21.333"/>
	</g>
</g>
<g>
	<g>
		<rect x="138.667" y="245.333" width="64" height="21.333"/>
	</g>
</g>
<g>
	<g>
		<rect x="224" y="245.333" width="21.333" height="21.333"/>
	</g>
</g>
<g>
	<g>
		<rect x="53.333" y="298.667" width="64" height="21.333"/>
	</g>
</g>
<g>
	<g>
		<rect x="138.667" y="298.667" width="64" height="21.333"/>
	</g>
</g>
<g>
	<g>
		<rect x="224" y="298.667" width="21.333" height="21.333"/>
	</g>
</g>
<g>
	<g>
		<rect x="53.333" y="352" width="64" height="21.333"/>
	</g>
</g>
<g>
	<g>
		<rect x="138.667" y="352" width="42.667" height="21.333"/>
	</g>
</g>
<g>
	<g>
		<rect x="53.333" y="405.333" width="64" height="21.333"/>
	</g>
</g>
<g>
	<g>
		<rect x="138.667" y="405.333" width="32" height="21.333"/>
	</g>
</g>
<g>
</g>
<g>
</g>
<g>
</g>
<g>
</g>
<g>
</g>
<g>
</g>
<g>
</g>
<g>
</g>
<g>
</g>
<g>
</g>
<g>
</g>
<g>
</g>
<g>
</g>
<g>
</g>
<g>
</g>
</svg>
